{"title":"Krabat.2008.DVDRIP.XviD-ZEKTORM","uid":4919794,"size":736617428,"categoryP":"video","categoryS":"movies","magnet":"?xt=urn:btih:b287499f8bf07fdecc1fec887592395d3c73bf5c&amp;dn=Krabat.2008.DVDRIP.XviD-ZEKTORM&amp;tr=udp%3A%2F%2Ftracker.openbittorrent.com%3A80&amp;tr=udp%3A%2F%2Fopen.demonii.com%3A1337&amp;tr=udp%3A%2F%2Ftracker.coppersurfer.tk%3A6969&amp;tr=udp%3A%2F%2Fexodus.desync.com%3A6969","seeders":1,"leechers":0,"uploader":"blowley","files":5,"time":1243608507,"description":"Title                            : Krabat\nYear                             : 2008\nGenre                            : Drama | Fantasy\niMDB URL                         : http://www.imdb.com/title/tt0772181/\nAwards                           : 1 win &amp; 2 nominations\n\nComplete name                    : K-ZEKTORM.avi\nFormat                           : AVI\nFile size                        : 701 MiB\nDuration                         : 1h 59mn\nOverall bit rate                 : 817 Kbps\nSubtitles                        : English (Format: VobSub)\nSource                           : DVD NTSC\n\nVideo\nFormat                           : MPEG-4 Visual\nFormat profile                   : Streaming Video@L1\nCodec ID                         : DX50\nCodec ID/Hint                    : DivX 5\nDuration                         : 1h 59mn\nBit rate                         : 682 Kbps\nWidth                            : 720 pixels\nHeight                           : 320 pixels\nDisplay aspect ratio             : 2.25\nFrame rate                       : 23.976 fps\nResolution                       : 24 bits\nColorimetry                      : 4:2:0\nScan type                        : Progressive\nBits/(Pixel*Frame)               : 0.123\nStream size                      : 585 MiB (83%)\nWriting library                  : XviD\n\nAudio\nLanguage                         : German\nFormat                           : MPEG Audio\nFormat version                   : Version 1\nFormat profile                   : Layer 3\nCodec ID                         : 55\nCodec ID/Hint                    : MP3\nDuration                         : 1h 59mn\nBit rate mode                    : Constant\nBit rate                         : 128 Kbps\nMinimum bit rate                 : 128 Kbps\nChannel(s)                       : 2 channels\nSampling rate                    : 48.0 KHz\nResolution                       : 16 bits\nVideo delay                      : 96ms\nStream size                      : 110 MiB (16%)\nWriting library                  : LAME3.98r\nEncoding settings                : CBR\n","torrent":{"xt":"urn:btih:b287499f8bf07fdecc1fec887592395d3c73bf5c","amp;dn":"Krabat.2008.DVDRIP.XviD-ZEKTORM","amp;tr":["udp%3A%2F%2Ftracker.openbittorrent.com%3A80","udp%3A%2F%2Fopen.demonii.com%3A1337","udp%3A%2F%2Ftracker.coppersurfer.tk%3A6969","udp%3A%2F%2Fexodus.desync.com%3A6969"],"infoHash":"b287499f8bf07fdecc1fec887592395d3c73bf5c","infoHashBuffer":{"type":"Buffer","data":[178,135,73,159,139,240,127,222,204,31,236,136,117,146,57,93,60,115,191,92]},"announce":[],"urlList":[]}}